<?xml version="1.0" encoding="utf-8"?>
<!-- Generator: Adobe Illustrator 22.0.1, SVG Export Plug-In . SVG Version: 6.00 Build 0)  -->
<svg version="1.1" id="Layer_1" xmlns="http://www.w3.org/2000/svg" xmlns:xlink="http://www.w3.org/1999/xlink" x="0px" y="0px"
	 viewBox="0 0 600 156.1" style="enable-background:new 0 0 600 156.1;" xml:space="preserve">
<style type="text/css">
	.st0{fill:#54BAD8;}
	.st1{fill:#FFFFFF;}
</style>
<g>
	<polygon class="st0" points="68.1,5 5,41.4 5,114.3 68.1,150.7 131.2,114.3 131.2,41.4 68.1,5 	"/>
	<path class="st1" d="M68.1,142.5l56-32.3v-6.5c-9.3-1.8-21-3.5-35.5-4.8c-49.3-4.3-3.7-14,17-31.4C126.3,50,36.9,44.8,36.9,44.8
		s36.5,7.7,32.9,12.4c-2.6,3.3-33.2,10.8-57.7,21.8v31.3L68.1,142.5z"/>
	<g>
		<path class="st0" d="M210.4,78c-1.2-1.4-2.7-2.5-4.5-3.4c-1.9-0.9-4-1.3-6.5-1.3c-1.9,0-3.7,0.4-5.2,1.2c-1.6,0.8-2.3,2.1-2.3,3.8
			c0,1.4,0.7,2.4,2,3.2c1.3,0.8,3.2,1.6,5.8,2.4c3.2,1,6,2.2,8.4,3.5c2.5,1.3,4.6,2.8,6.3,4.5c1.7,1.7,3,3.7,4,5.9
			c0.9,2.2,1.4,4.7,1.4,7.4c0,4.7-1,8.7-3.1,12c-2.1,3.3-4.7,6-7.9,8.1c-3.2,2.1-6.7,3.6-10.6,4.5c-3.8,1-7.6,1.4-11.3,1.4
			c-2.9,0-5.8-0.2-8.7-0.7c-2.9-0.5-5.7-1.2-8.3-2.1c-2.7-0.9-5.2-2-7.5-3.3c-2.3-1.3-4.4-2.8-6.1-4.4l16.3-15.1
			c0.8,1,1.8,1.8,3,2.6c1.2,0.8,2.4,1.4,3.7,1.9c1.3,0.5,2.6,0.9,3.9,1.2c1.3,0.3,2.5,0.5,3.6,0.5c2.4,0,4.3-0.4,5.8-1.2
			c1.4-0.8,2.2-1.9,2.2-3.5c0-1.2-0.6-2.3-1.8-3.3c-1.2-1-3.5-2-6.8-3c-2.6-0.8-5.1-1.8-7.4-2.9c-2.3-1.1-4.3-2.4-6-4
			c-1.7-1.6-3-3.4-4-5.6c-1-2.2-1.4-4.8-1.4-7.9c0-3.8,0.8-7.3,2.3-10.5c1.6-3.2,3.8-6,6.6-8.4c2.9-2.4,6.3-4.2,10.2-5.6
			c4-1.3,8.3-2,13.1-2c2.6,0,5.2,0.2,7.8,0.7c2.5,0.4,5,1.1,7.2,1.9c2.3,0.8,4.4,1.7,6.3,2.8c1.9,1.1,3.5,2.3,4.9,3.7L210.4,78z"/>
		<path class="st0" d="M269.3,76.3l-9.3,53h-24l9.3-53h-18.5l3.6-20.2h60.4l-3.6,20.2H269.3z"/>
		<path class="st0" d="M323.3,129.4l-10-26.8h-2.9l-4.5,26.8h-23.1l12.9-73.2h30.1c4,0,7.6,0.4,10.9,1.3c3.2,0.9,6,2.2,8.3,3.9
			c2.3,1.7,4,3.8,5.2,6.4c1.2,2.5,1.8,5.4,1.8,8.6c0,6.1-1.4,11.1-4.3,15c-2.9,3.9-6.8,6.6-11.7,8.1l14.3,29.9H323.3z M318,87.4
			c3.2,0,5.7-0.5,7.4-1.6c1.8-1.1,2.7-2.8,2.7-5.1c0-2.1-0.7-3.6-2.2-4.4c-1.5-0.8-3.5-1.2-6-1.2h-4.4l-2.2,12.3H318z"/>
		<path class="st0" d="M353.5,129.4l12.9-73.2h24.1l-12.9,73.2H353.5z"/>
		<path class="st0" d="M455.9,129.4l8.2-42.4h-0.6l-21.6,42.4H425L418.5,87H418l-6.3,42.4h-22.3l12.9-73.2h30.5l6.4,40.1h0.5
			l19-40.1h33.4l-12.9,73.2H455.9z"/>
		<path class="st0" d="M488.5,129.4l3.5-20.1L526.1,76h-27.1l3.5-19.9h58.2l-3.1,17.4l-36,35.5h30.6l-3.6,20.4H488.5z"/>
		<path class="st0" d="M558,129.4l12.9-73.2H595l-12.9,73.2H558z"/>
	</g>
</g>
</svg>
